<?xml version="1.0" encoding="utf-8"?>
<!-- Generator: Adobe Illustrator 23.0.1, SVG Export Plug-In . SVG Version: 6.00 Build 0)  -->
<svg version="1.1" id="Layer_1" xmlns="http://www.w3.org/2000/svg" xmlns:xlink="http://www.w3.org/1999/xlink" x="0px" y="0px"
	 width="432px" height="181.1px" viewBox="0 0 432 181.1" style="enable-background:new 0 0 432 181.1;" xml:space="preserve">
<style type="text/css">
	.st0{fill-rule:evenodd;clip-rule:evenodd;fill:url(#SVGID_1_);}
	.st1{fill-rule:evenodd;clip-rule:evenodd;fill:url(#SVGID_2_);}
	.st2{fill-rule:evenodd;clip-rule:evenodd;fill:url(#SVGID_3_);}
	.st3{fill:#FFFFFF;}
	.st4{fill:#878787;}
	.st5{fill:#F89721;}
	.st6{fill:url(#SVGID_4_);}
	.st7{fill:url(#SVGID_5_);}
	.st8{fill:url(#SVGID_6_);}
	.st9{fill:#F78F21;}
	.st10{fill-rule:evenodd;clip-rule:evenodd;fill:url(#SVGID_7_);}
	.st11{fill-rule:evenodd;clip-rule:evenodd;fill:url(#SVGID_8_);}
	.st12{fill-rule:evenodd;clip-rule:evenodd;fill:url(#SVGID_9_);}
	.st13{fill:#C4C4C4;}
	.st14{fill:url(#SVGID_10_);}
	.st15{fill:url(#SVGID_11_);}
	.st16{fill:url(#SVGID_12_);}
</style>
<g>
	
		<linearGradient id="SVGID_1_" gradientUnits="userSpaceOnUse" x1="86.3" y1="640.8" x2="86.3" y2="468.2" gradientTransform="matrix(1 0 0 1 0 -464)">
		<stop  offset="5.586592e-03" style="stop-color:#F3F3F3"/>
		<stop  offset="1" style="stop-color:#E1E1E1"/>
	</linearGradient>
	<circle class="st0" cx="86.3" cy="90.5" r="86.3"/>
	
		<linearGradient id="SVGID_2_" gradientUnits="userSpaceOnUse" x1="86.3" y1="472.5" x2="86.3" y2="636.5" gradientTransform="matrix(1 0 0 1 0 -464)">
		<stop  offset="5.586592e-03" style="stop-color:#F3F3F3"/>
		<stop  offset="1" style="stop-color:#E1E1E1"/>
	</linearGradient>
	<circle class="st1" cx="86.3" cy="90.5" r="82"/>
	<g>
		
			<radialGradient id="SVGID_3_" cx="86.3" cy="554.5" r="67" gradientTransform="matrix(1 0 0 1 0 -464)" gradientUnits="userSpaceOnUse">
			<stop  offset="5.586592e-03" style="stop-color:#FBA91D"/>
			<stop  offset="1" style="stop-color:#F78F1E"/>
		</radialGradient>
		<circle class="st2" cx="86.3" cy="90.5" r="67"/>
	</g>
	<g>
		<path class="st3" d="M54.1,85.3v26.6H42.8V66.8v-0.1l0,0l0,0h11.3l0,0L72.2,93V66.7h11.3v44.9l0.2,0.3H72.2v-0.4L54.1,85.3z"/>
		<path class="st3" d="M119,84.3c8,1.3,12,5.5,12,12.4V98c-0.1,8.3-4,12.9-11.9,13.9H90.4l4.5-9.8h21.4c2.3-0.4,3.5-1.9,3.5-4.4
			c0-2.2-1.2-3.5-3.7-3.9h-13.6c-8-1.3-12-5.5-12-12.4v-1.3c0.1-8,4-12.4,11.9-13.4h28.7l-4.6,9.7H105c-2.2,0.3-3.3,1.7-3.3,4.2
			c0,2.2,1.2,3.4,3.7,3.7L119,84.3L119,84.3z"/>
	</g>
</g>
<g>
	<path class="st4" d="M189.7,175.6v-13.9h2.2v13.9H189.7z"/>
	<path class="st4" d="M204.2,175.6H202v-6.5c0-0.8-0.2-1.4-0.5-1.8c-0.3-0.4-0.8-0.6-1.5-0.6c-0.9,0-1.6,0.3-2,0.8s-0.6,1.5-0.6,2.8
		v5.2h-2.2V165h1.7l0.3,1.4h0.1c0.3-0.5,0.7-0.9,1.3-1.2s1.2-0.4,1.9-0.4c2.4,0,3.7,1.3,3.7,3.9V175.6z"/>
	<path class="st4" d="M216.2,175.6H214v-6.5c0-0.8-0.2-1.4-0.5-1.8c-0.3-0.4-0.8-0.6-1.5-0.6c-0.9,0-1.6,0.3-2,0.8s-0.6,1.5-0.6,2.8
		v5.2h-2.2V165h1.7l0.3,1.4h0.1c0.3-0.5,0.7-0.9,1.3-1.2s1.2-0.4,1.9-0.4c2.4,0,3.7,1.3,3.7,3.9V175.6z"/>
	<path class="st4" d="M228.3,170.3c0,1.7-0.4,3.1-1.3,4c-0.9,1-2,1.4-3.6,1.4c-1,0-1.8-0.2-2.5-0.7c-0.7-0.4-1.3-1.1-1.7-1.9
		c-0.4-0.8-0.6-1.8-0.6-2.9c0-1.7,0.4-3,1.3-4c0.8-1,2-1.4,3.6-1.4c1.5,0,2.6,0.5,3.5,1.5C227.9,167.3,228.3,168.6,228.3,170.3z
		 M220.9,170.3c0,2.4,0.9,3.6,2.6,3.6c1.7,0,2.6-1.2,2.6-3.6c0-2.4-0.9-3.6-2.6-3.6c-0.9,0-1.6,0.3-2,0.9
		C221.1,168.3,220.9,169.1,220.9,170.3z"/>
	<path class="st4" d="M233.1,175.6l-3.9-10.5h2.3l2.1,6.1c0.4,1,0.6,1.9,0.6,2.5h0.1c0.1-0.5,0.3-1.3,0.6-2.5l2.1-6.1h2.3l-3.9,10.5
		H233.1z"/>
	<path class="st4" d="M247.3,175.6l-0.4-1.5h-0.1c-0.5,0.6-1,1.1-1.5,1.3s-1.1,0.3-1.9,0.3c-1,0-1.8-0.3-2.3-0.8s-0.8-1.3-0.8-2.4
		c0-1.1,0.4-1.9,1.2-2.5s2-0.9,3.6-0.9l1.8-0.1v-0.6c0-0.7-0.2-1.2-0.5-1.5s-0.8-0.5-1.4-0.5c-0.5,0-1,0.1-1.5,0.2
		c-0.5,0.2-0.9,0.3-1.4,0.6l-0.7-1.6c0.6-0.3,1.2-0.5,1.8-0.7c0.7-0.2,1.3-0.2,1.9-0.2c1.3,0,2.3,0.3,2.9,0.9c0.7,0.6,1,1.5,1,2.8
		v7.1L247.3,175.6L247.3,175.6z M244.1,174.1c0.8,0,1.4-0.2,1.9-0.7s0.7-1.1,0.7-1.9v-0.9l-1.3,0.1c-1,0-1.8,0.2-2.2,0.5
		c-0.5,0.3-0.7,0.8-0.7,1.4c0,0.5,0.1,0.8,0.4,1.1C243.1,173.9,243.5,174.1,244.1,174.1z"/>
	<path class="st4" d="M255.7,174c0.5,0,1.1-0.1,1.6-0.3v1.7c-0.2,0.1-0.5,0.2-0.9,0.3s-0.8,0.1-1.2,0.1c-2.1,0-3.1-1.1-3.1-3.4v-5.7
		h-1.4v-1l1.5-0.8l0.7-2.2h1.3v2.3h2.9v1.7h-2.9v5.6c0,0.5,0.1,0.9,0.4,1.2C254.9,173.8,255.3,174,255.7,174z"/>
	<path class="st4" d="M259.2,162.3c0-0.4,0.1-0.7,0.3-0.9c0.2-0.2,0.5-0.3,0.9-0.3s0.7,0.1,0.9,0.3c0.2,0.2,0.3,0.5,0.3,0.9
		s-0.1,0.7-0.3,0.9c-0.2,0.2-0.5,0.3-0.9,0.3s-0.7-0.1-0.9-0.3C259.3,163,259.2,162.7,259.2,162.3z M261.5,175.6h-2.2v-10.5h2.2
		V175.6z"/>
	<path class="st4" d="M273.6,170.3c0,1.7-0.4,3.1-1.3,4c-0.9,1-2,1.4-3.6,1.4c-1,0-1.8-0.2-2.5-0.7c-0.7-0.4-1.3-1.1-1.7-1.9
		c-0.4-0.8-0.6-1.8-0.6-2.9c0-1.7,0.4-3,1.3-4s2-1.4,3.6-1.4c1.5,0,2.6,0.5,3.5,1.5C273.2,167.3,273.6,168.6,273.6,170.3z
		 M266.2,170.3c0,2.4,0.9,3.6,2.6,3.6s2.6-1.2,2.6-3.6c0-2.4-0.9-3.6-2.6-3.6c-0.9,0-1.6,0.3-2,0.9
		C266.4,168.3,266.2,169.1,266.2,170.3z"/>
	<path class="st4" d="M285.1,175.6h-2.2v-6.5c0-0.8-0.2-1.4-0.5-1.8c-0.3-0.4-0.8-0.6-1.5-0.6c-0.9,0-1.6,0.3-2,0.8
		c-0.4,0.6-0.6,1.5-0.6,2.8v5.2h-2.2V165h1.7l0.3,1.4h0.1c0.3-0.5,0.7-0.9,1.3-1.2s1.2-0.4,1.9-0.4c2.4,0,3.7,1.3,3.7,3.9
		L285.1,175.6L285.1,175.6z"/>
	<path class="st4" d="M301.4,175.6l-1.3-4.9c-0.2-0.5-0.4-1.7-0.9-3.6h-0.1c-0.4,1.7-0.6,2.9-0.8,3.6l-1.4,4.9h-2.4l-2.9-10.5h2.2
		l1.3,5.2c0.3,1.3,0.5,2.4,0.6,3.3h0.1c0.1-0.5,0.2-1,0.3-1.6s0.2-1,0.3-1.3l1.6-5.5h2.4l1.5,5.5c0.1,0.3,0.2,0.8,0.3,1.4
		c0.1,0.6,0.2,1.1,0.2,1.5h0.1c0.1-0.8,0.3-1.9,0.6-3.3l1.3-5.2h2.2l-2.9,10.5L301.4,175.6L301.4,175.6z"/>
	<path class="st4" d="M308.4,162.3c0-0.4,0.1-0.7,0.3-0.9c0.2-0.2,0.5-0.3,0.9-0.3s0.7,0.1,0.9,0.3c0.2,0.2,0.3,0.5,0.3,0.9
		s-0.1,0.7-0.3,0.9c-0.2,0.2-0.5,0.3-0.9,0.3s-0.7-0.1-0.9-0.3S308.4,162.7,308.4,162.3z M310.7,175.6h-2.2v-10.5h2.2V175.6z"/>
	<path class="st4" d="M317.6,174c0.5,0,1.1-0.1,1.6-0.3v1.7c-0.2,0.1-0.5,0.2-0.9,0.3s-0.8,0.1-1.2,0.1c-2.1,0-3.1-1.1-3.1-3.4v-5.7
		h-1.4v-1l1.5-0.8l0.7-2.2h1.3v2.3h2.9v1.7h-2.9v5.6c0,0.5,0.1,0.9,0.4,1.2C316.8,173.8,317.1,174,317.6,174z"/>
	<path class="st4" d="M330.2,175.6H328v-6.5c0-0.8-0.2-1.4-0.5-1.8c-0.3-0.4-0.8-0.6-1.5-0.6c-0.9,0-1.6,0.3-2,0.8s-0.6,1.5-0.6,2.8
		v5.2h-2.2v-14.8h2.2v3.8c0,0.6,0,1.2-0.1,1.9h0.1c0.3-0.5,0.7-0.9,1.2-1.2s1.1-0.4,1.8-0.4c2.5,0,3.7,1.3,3.7,3.9v6.9L330.2,175.6
		L330.2,175.6z"/>
	<path class="st4" d="M342.6,175.8c-1.6,0-2.8-0.5-3.7-1.4s-1.3-2.3-1.3-3.9c0-1.7,0.4-3.1,1.2-4.1s2-1.5,3.4-1.5
		c1.3,0,2.4,0.4,3.2,1.3c0.8,0.8,1.2,2,1.2,3.5v1.2h-6.8c0,1,0.3,1.8,0.8,2.4s1.2,0.8,2.1,0.8c0.6,0,1.2-0.1,1.7-0.2
		c0.5-0.1,1.1-0.3,1.7-0.6v1.8c-0.5,0.3-1.1,0.4-1.6,0.6C343.9,175.7,343.3,175.8,342.6,175.8z M342.2,166.6c-0.7,0-1.2,0.2-1.7,0.7
		c-0.4,0.5-0.7,1.1-0.7,2h4.6c0-0.9-0.2-1.5-0.6-2S342.9,166.6,342.2,166.6z"/>
	<path class="st4" d="M351.3,170.2l-3.4-5.1h2.5l2.3,3.7l2.3-3.7h2.5l-3.4,5.1l3.6,5.4h-2.5l-2.5-3.9l-2.5,3.9h-2.5L351.3,170.2z"/>
	<path class="st4" d="M363.5,175.8c-1.5,0-2.7-0.5-3.5-1.4s-1.2-2.3-1.2-4c0-1.8,0.4-3.1,1.3-4.1s2.1-1.4,3.6-1.4
		c1.1,0,2,0.2,2.9,0.6l-0.7,1.8c-0.9-0.4-1.7-0.6-2.3-0.6c-1.8,0-2.7,1.2-2.7,3.6c0,1.2,0.2,2.1,0.7,2.7c0.4,0.6,1.1,0.9,1.9,0.9
		c1,0,1.9-0.2,2.7-0.7v2c-0.4,0.2-0.8,0.4-1.2,0.5C364.7,175.7,364.2,175.8,363.5,175.8z"/>
	<path class="st4" d="M373.2,175.8c-1.6,0-2.8-0.5-3.7-1.4s-1.3-2.3-1.3-3.9c0-1.7,0.4-3.1,1.2-4.1s2-1.5,3.4-1.5
		c1.3,0,2.4,0.4,3.2,1.3c0.8,0.8,1.2,2,1.2,3.5v1.2h-6.8c0,1,0.3,1.8,0.8,2.4s1.2,0.8,2.1,0.8c0.6,0,1.2-0.1,1.7-0.2
		c0.5-0.1,1.1-0.3,1.7-0.6v1.8c-0.5,0.3-1.1,0.4-1.6,0.6C374.6,175.7,373.9,175.8,373.2,175.8z M372.8,166.6c-0.7,0-1.2,0.2-1.7,0.7
		c-0.4,0.5-0.7,1.1-0.7,2h4.6c0-0.9-0.2-1.5-0.6-2C374.1,166.8,373.5,166.6,372.8,166.6z"/>
	<path class="st4" d="M381.8,175.6h-2.2v-14.8h2.2V175.6z"/>
	<path class="st4" d="M387.1,175.6H385v-14.8h2.2v14.8H387.1z"/>
	<path class="st4" d="M394.7,175.8c-1.6,0-2.8-0.5-3.7-1.4s-1.3-2.3-1.3-3.9c0-1.7,0.4-3.1,1.2-4.1s2-1.5,3.4-1.5
		c1.3,0,2.4,0.4,3.2,1.3c0.8,0.8,1.2,2,1.2,3.5v1.2h-6.8c0,1,0.3,1.8,0.8,2.4s1.2,0.8,2.1,0.8c0.6,0,1.2-0.1,1.7-0.2
		c0.5-0.1,1.1-0.3,1.7-0.6v1.8c-0.5,0.3-1.1,0.4-1.6,0.6C396,175.7,395.4,175.8,394.7,175.8z M394.3,166.6c-0.7,0-1.2,0.2-1.7,0.7
		c-0.4,0.5-0.7,1.1-0.7,2h4.6c0-0.9-0.2-1.5-0.6-2C395.5,166.8,395,166.6,394.3,166.6z"/>
	<path class="st4" d="M410.1,175.6h-2.2v-6.5c0-0.8-0.2-1.4-0.5-1.8c-0.3-0.4-0.8-0.6-1.5-0.6c-0.9,0-1.6,0.3-2,0.8
		c-0.4,0.6-0.6,1.5-0.6,2.8v5.2h-2.2V165h1.7l0.3,1.4h0.1c0.3-0.5,0.7-0.9,1.3-1.2s1.2-0.4,1.9-0.4c2.4,0,3.7,1.3,3.7,3.9
		L410.1,175.6L410.1,175.6z"/>
	<path class="st4" d="M417.2,175.8c-1.5,0-2.7-0.5-3.5-1.4s-1.2-2.3-1.2-4c0-1.8,0.4-3.1,1.3-4.1s2.1-1.4,3.6-1.4
		c1.1,0,2,0.2,2.9,0.6l-0.7,1.8c-0.9-0.4-1.7-0.6-2.3-0.6c-1.8,0-2.7,1.2-2.7,3.6c0,1.2,0.2,2.1,0.7,2.7c0.4,0.6,1.1,0.9,1.9,0.9
		c1,0,1.9-0.2,2.7-0.7v2c-0.4,0.2-0.8,0.4-1.2,0.5C418.4,175.7,417.9,175.8,417.2,175.8z"/>
	<path class="st4" d="M426.9,175.8c-1.6,0-2.8-0.5-3.7-1.4s-1.3-2.3-1.3-3.9c0-1.7,0.4-3.1,1.2-4.1s2-1.5,3.4-1.5
		c1.3,0,2.4,0.4,3.2,1.3c0.8,0.8,1.2,2,1.2,3.5v1.2h-6.8c0,1,0.3,1.8,0.8,2.4s1.2,0.8,2.1,0.8c0.6,0,1.2-0.1,1.7-0.2
		c0.5-0.1,1.1-0.3,1.7-0.6v1.8c-0.5,0.3-1.1,0.4-1.6,0.6C428.3,175.7,427.6,175.8,426.9,175.8z M426.5,166.6c-0.7,0-1.2,0.2-1.7,0.7
		c-0.4,0.5-0.7,1.1-0.7,2h4.6c0-0.9-0.2-1.5-0.6-2C427.8,166.8,427.2,166.6,426.5,166.6z"/>
</g>
<rect x="190.4" y="102.8" class="st5" width="241.6" height="47"/>
<g>
	<path class="st3" d="M206.5,139.8h-4.3v-24.6h4.3V139.8z"/>
	<path class="st3" d="M239.5,137.9c0,0.3-0.1,0.6-0.2,0.9s-0.3,0.5-0.5,0.7s-0.4,0.4-0.7,0.5s-0.5,0.2-0.8,0.2s-0.5-0.1-0.8-0.2
		s-0.5-0.3-0.7-0.5l-15.8-17v17.3h-4.3v-22.7c0-0.5,0.1-0.9,0.4-1.2c0.2-0.4,0.6-0.6,1-0.8c0.4-0.2,0.8-0.2,1.3-0.1s0.8,0.3,1.1,0.6
		l15.8,17v-17.3h4.3v22.6H239.5z"/>
	<path class="st3" d="M270.2,119.7h-17.3v20.1h-4.3v-22.3c0-0.3,0.1-0.6,0.2-0.9c0.1-0.3,0.3-0.5,0.5-0.7s0.4-0.4,0.7-0.5
		s0.6-0.2,0.9-0.2h19.5v4.5C270.4,119.7,270.2,119.7,270.2,119.7z M268.3,129.8h-13.7v-4.5h13.7V129.8z"/>
	<path class="st3" d="M302.7,129.9c0,1.5-0.2,2.9-0.7,4.1c-0.5,1.3-1.2,2.3-2.1,3.3s-1.9,1.6-3.1,2.1s-2.5,0.8-4,0.8H287
		c-1.4,0-2.8-0.3-4-0.8s-2.3-1.2-3.2-2.1s-1.6-2-2.1-3.3s-0.8-2.6-0.8-4.1v-4.7c0-1.5,0.3-2.9,0.8-4.1c0.5-1.3,1.2-2.3,2.1-3.3
		s1.9-1.6,3.2-2.1c1.2-0.5,2.5-0.8,4-0.8h5.8c1.4,0,2.8,0.3,4,0.8s2.3,1.2,3.1,2.1s1.6,2,2.1,3.3s0.7,2.6,0.7,4.1V129.9z
		 M298.3,125.2c0-0.9-0.1-1.7-0.4-2.4c-0.3-0.7-0.7-1.3-1.1-1.8c-0.5-0.5-1.1-0.9-1.8-1.2c-0.7-0.3-1.5-0.4-2.3-0.4h-5.8
		c-0.8,0-1.6,0.1-2.3,0.4c-0.7,0.3-1.3,0.7-1.8,1.2s-0.9,1.1-1.2,1.8c-0.3,0.7-0.4,1.5-0.4,2.4v4.7c0,0.9,0.1,1.7,0.4,2.4
		s0.7,1.3,1.2,1.8s1.1,0.9,1.8,1.2c0.7,0.3,1.5,0.4,2.3,0.4h5.8c0.8,0,1.6-0.1,2.3-0.4c0.7-0.3,1.3-0.7,1.8-1.2s0.9-1.1,1.2-1.8
		c0.3-0.7,0.4-1.5,0.4-2.4v-4.7H298.3z"/>
	<path class="st3" d="M332.2,119.7h-9.5v20.1h-4.3v-20.1h-9.5v-4.5h23.4v4.5C332.3,119.7,332.2,119.7,332.2,119.7z"/>
	<path class="st3" d="M361,139.8h-15.6c-0.6,0-1.3-0.1-2-0.3s-1.4-0.6-2-1.1s-1.1-1.1-1.5-1.9s-0.6-1.8-0.6-2.9v-16.1
		c0-0.3,0.1-0.6,0.2-0.9s0.3-0.5,0.5-0.7s0.4-0.4,0.7-0.5c0.3-0.1,0.6-0.2,0.9-0.2H361v4.5h-17.3v13.9c0,0.6,0.2,1,0.4,1.3
		c0.3,0.3,0.7,0.5,1.3,0.5H361V139.8z M359.1,129.8h-13.6v-4.5h13.6V129.8z"/>
	<path class="st3" d="M390.5,139.8h-15.6c-0.4,0-0.8,0-1.3-0.1s-0.9-0.2-1.4-0.5c-0.4-0.2-0.9-0.5-1.3-0.8s-0.8-0.7-1.1-1.2
		c-0.3-0.5-0.6-1-0.8-1.6c-0.2-0.6-0.3-1.3-0.3-2.1v-12.1c0-0.4,0-0.9,0.1-1.3c0.1-0.5,0.2-0.9,0.4-1.4c0.2-0.5,0.5-0.9,0.8-1.3
		s0.7-0.8,1.2-1.1c0.4-0.3,1-0.6,1.6-0.8c0.6-0.2,1.3-0.3,2-0.3h15.6v4.5h-15.6c-0.6,0-1,0.2-1.3,0.5s-0.4,0.8-0.4,1.4v12
		c0,0.6,0.2,1,0.5,1.3s0.7,0.5,1.3,0.5h15.6L390.5,139.8L390.5,139.8z"/>
	<path class="st3" d="M403,125.3h15.2v-10h4.3v24.6h-4.3v-10H403v10h-4.3v-24.6h4.3V125.3z"/>
</g>
<g>
	<path d="M238.4,76.4c0,1.7-0.2,3.3-0.6,4.7c-0.4,1.4-1,2.6-1.7,3.7s-1.5,2-2.5,2.7c-0.9,0.7-1.9,1.4-2.9,1.8c-1,0.5-2,0.8-3.1,1.1
		c-1,0.2-2,0.3-3,0.3h-33.1V82h33.1c1.7,0,2.9-0.5,3.8-1.5c0.9-1,1.4-2.3,1.4-4c0-0.8-0.1-1.6-0.4-2.2c-0.2-0.7-0.6-1.3-1-1.8
		c-0.5-0.5-1-0.9-1.7-1.2c-0.7-0.3-1.4-0.4-2.2-0.4h-19.8c-1.4,0-2.9-0.3-4.5-0.8s-3.1-1.3-4.5-2.5c-1.4-1.1-2.5-2.6-3.4-4.5
		s-1.4-4.1-1.4-6.7s0.5-4.9,1.4-6.7s2.1-3.3,3.4-4.5c1.4-1.1,2.9-2,4.5-2.5s3.1-0.8,4.5-0.8h29.2v8.9h-29.2c-1.6,0-2.9,0.5-3.8,1.5
		c-0.9,1-1.4,2.4-1.4,4.1c0,1.7,0.5,3,1.4,4s2.2,1.5,3.8,1.5h19.8h0.1c0.9,0,1.9,0.2,2.9,0.4s2.1,0.6,3.1,1.1s2,1.1,2.9,1.9
		s1.7,1.7,2.5,2.7s1.3,2.3,1.7,3.7C238.2,73.1,238.4,74.7,238.4,76.4z"/>
	<path d="M287.2,50.8h-18.9v40h-8.6v-40h-19V42h46.5V50.8z"/>
</g>
<g>
	
		<radialGradient id="SVGID_4_" cx="233.3593" cy="515.9526" r="29.6377" gradientTransform="matrix(0.9211 -0.3892 0.3892 0.9211 -99.7113 -317.919)" gradientUnits="userSpaceOnUse">
		<stop  offset="5.586592e-03" style="stop-color:#FBA91D"/>
		<stop  offset="1" style="stop-color:#F78F1E"/>
	</radialGradient>
	<path class="st6" d="M301.6,79.1c4-2.8,8.5-7.3,12.4-12.7c5.1-7.2,8.5-14.8,9.2-20.1l-2.2,0.6l-20.4-18.6l-1,27.7l-24,13.6
		l25.9,9.4L301.6,79.1z"/>
	
		<radialGradient id="SVGID_5_" cx="233.9194" cy="526.9734" r="19.6383" gradientTransform="matrix(0.9211 -0.3892 0.3892 0.9211 -99.7113 -317.919)" gradientUnits="userSpaceOnUse">
		<stop  offset="5.586592e-03" style="stop-color:#FBA91D"/>
		<stop  offset="1" style="stop-color:#F78F1E"/>
	</radialGradient>
	<path class="st7" d="M329.6,72.4c-8.1,8-17.1,14.5-24.6,17.7l0,0c-0.4,0.2-0.7,0.3-1.1,0.4l3.2,15.5L324,84.3l27.4,3l-15.1-22.2
		C334.3,67.6,332,70,329.6,72.4z"/>
	
		<radialGradient id="SVGID_6_" cx="236.9392" cy="515.7397" r="27.5811" gradientTransform="matrix(0.9211 -0.3892 0.3892 0.9211 -99.7113 -317.919)" gradientUnits="userSpaceOnUse">
		<stop  offset="5.586592e-03" style="stop-color:#FBA91D"/>
		<stop  offset="1" style="stop-color:#F15C30"/>
	</radialGradient>
	<path class="st8" d="M325.6,45.9c-0.4,5.6-3.9,13.8-9.7,22c-8.8,12.3-19.5,19.8-23.9,16.6c-1.8-1.3-2.3-4.2-1.7-8
		c-2,5.2-2.1,9.4,0.2,11.7c5.4,5.4,22.1-2.4,37.4-17.5c11.6-11.4,19-23.7,19.6-31.3L325.6,45.9z"/>
</g>
<g>
	<path d="M402.6,58.4c0,2-0.2,3.8-0.7,5.4c-0.5,1.6-1.1,3-2,4.2c-0.8,1.2-1.8,2.3-2.9,3.1c-1.1,0.9-2.2,1.6-3.4,2.1
		c-1.2,0.6-2.4,1-3.6,1.2c-1.2,0.3-2.3,0.4-3.4,0.4l17.9,16h-13.3l-17.9-16h-6.2V66h19.4c1.1-0.1,2.1-0.3,3-0.7
		c0.9-0.4,1.7-0.9,2.3-1.5c0.6-0.6,1.2-1.4,1.5-2.3c0.4-0.9,0.5-1.9,0.5-3.1v-5.6c0-0.5-0.1-0.9-0.2-1.1c-0.1-0.3-0.3-0.5-0.5-0.6
		s-0.4-0.2-0.6-0.2s-0.4,0-0.6,0h-28.3v40H355V46.4c0-0.6,0.1-1.2,0.3-1.7c0.2-0.5,0.5-1,0.9-1.4s0.8-0.7,1.4-1
		c0.5-0.2,1.1-0.3,1.7-0.3h32.6c1.9,0,3.5,0.4,4.9,1.1s2.4,1.6,3.2,2.7c0.8,1.1,1.4,2.2,1.8,3.5s0.5,2.4,0.5,3.5v5.6
		C402.3,58.4,402.6,58.4,402.6,58.4z"/>
</g>
<g>
	<path class="st9" d="M222.1,29.5c0,0.3-0.1,0.7-0.2,0.9c-0.1,0.3-0.3,0.5-0.5,0.8c-0.2,0.2-0.4,0.4-0.7,0.5s-0.6,0.2-0.9,0.2
		c-0.3,0-0.6-0.1-0.9-0.2c-0.3-0.1-0.5-0.3-0.8-0.5l-16.7-17.9v18.3H197v-24c0-0.5,0.1-0.9,0.4-1.3c0.3-0.4,0.6-0.7,1-0.9
		c0.4-0.2,0.9-0.2,1.3-0.1c0.5,0.1,0.8,0.3,1.2,0.7l16.7,17.9V5.6h4.6L222.1,29.5L222.1,29.5z"/>
	<path class="st9" d="M249.8,31.5h-16.5c-0.6,0-1.3-0.1-2.1-0.3c-0.7-0.2-1.4-0.6-2.1-1.1s-1.2-1.2-1.6-2s-0.6-1.9-0.6-3.1V8
		c0-0.3,0.1-0.6,0.2-0.9c0.1-0.3,0.3-0.5,0.5-0.8c0.2-0.2,0.4-0.4,0.7-0.5s0.6-0.2,0.9-0.2h20.5v4.7h-18.3v14.6
		c0,0.6,0.2,1.1,0.5,1.4s0.8,0.5,1.4,0.5h16.4v4.7H249.8z M247.7,20.9h-14.4v-4.7h14.4V20.9z"/>
	<path class="st9" d="M285.9,5.6l-4.2,24.3c-0.1,0.5-0.3,0.9-0.6,1.2c-0.3,0.4-0.7,0.6-1.2,0.7s-0.9,0-1.4-0.2
		c-0.4-0.2-0.8-0.5-1-0.9l-8.4-14.1l-8.4,14.1c-0.2,0.4-0.5,0.6-0.8,0.8c-0.3,0.2-0.7,0.3-1.1,0.3c-0.5,0-1-0.2-1.5-0.5
		c-0.4-0.4-0.7-0.8-0.8-1.4l-4.2-24.3h4.6l3,17.1l7.2-11.8c0.2-0.3,0.5-0.6,0.8-0.8s0.7-0.3,1.1-0.3s0.8,0.1,1.1,0.3
		c0.3,0.2,0.6,0.5,0.8,0.8l7.2,11.8l3-17.1C281.1,5.6,285.9,5.6,285.9,5.6z"/>
</g>
<g>
	
		<linearGradient id="SVGID_7_" gradientUnits="userSpaceOnUse" x1="72.5" y1="877.1" x2="72.5" y2="704.5" gradientTransform="matrix(1 0 0 1 0 -464)">
		<stop  offset="5.586592e-03" style="stop-color:#F3F3F3"/>
		<stop  offset="1" style="stop-color:#E1E1E1"/>
	</linearGradient>
	<circle class="st10" cx="72.5" cy="326.8" r="86.3"/>
	
		<linearGradient id="SVGID_8_" gradientUnits="userSpaceOnUse" x1="72.5" y1="708.8" x2="72.5" y2="872.8" gradientTransform="matrix(1 0 0 1 0 -464)">
		<stop  offset="5.586592e-03" style="stop-color:#F3F3F3"/>
		<stop  offset="1" style="stop-color:#E1E1E1"/>
	</linearGradient>
	<circle class="st11" cx="72.5" cy="326.8" r="82"/>
	<g>
		
			<radialGradient id="SVGID_9_" cx="72.5" cy="790.8" r="67" gradientTransform="matrix(1 0 0 1 0 -464)" gradientUnits="userSpaceOnUse">
			<stop  offset="5.586592e-03" style="stop-color:#FBA91D"/>
			<stop  offset="1" style="stop-color:#F78F1E"/>
		</radialGradient>
		<circle class="st12" cx="72.5" cy="326.8" r="67"/>
	</g>
	<g>
		<path class="st3" d="M40.3,321.6v26.6H29v-45.1V303l0,0l0,0h11.3l0,0l18.1,26.3V303h11.3v44.9l0.2,0.3H58.4v-0.4L40.3,321.6z"/>
		<path class="st3" d="M105.2,320.6c8,1.3,12,5.5,12,12.4v1.3c-0.1,8.3-4,12.9-11.9,13.9H76.6l4.5-9.8h21.4c2.3-0.4,3.5-1.9,3.5-4.4
			c0-2.2-1.2-3.5-3.7-3.9H88.7c-8-1.3-12-5.5-12-12.4v-1.3c0.1-8,4-12.4,11.9-13.4h28.7l-4.6,9.7H91.2c-2.2,0.3-3.3,1.7-3.3,4.2
			c0,2.2,1.2,3.4,3.7,3.7L105.2,320.6L105.2,320.6z"/>
	</g>
</g>
<g>
	<path class="st13" d="M175.9,411.9V398h2.2v13.9H175.9z"/>
	<path class="st13" d="M190.4,411.9h-2.2v-6.5c0-0.8-0.2-1.4-0.5-1.8s-0.8-0.6-1.5-0.6c-0.9,0-1.6,0.3-2,0.8s-0.6,1.5-0.6,2.8v5.2
		h-2.2v-10.5h1.7l0.3,1.4h0.1c0.3-0.5,0.7-0.9,1.3-1.2c0.6-0.3,1.2-0.4,1.9-0.4c2.4,0,3.7,1.3,3.7,3.9V411.9z"/>
	<path class="st13" d="M202.4,411.9h-2.2v-6.5c0-0.8-0.2-1.4-0.5-1.8s-0.8-0.6-1.5-0.6c-0.9,0-1.6,0.3-2,0.8s-0.6,1.5-0.6,2.8v5.2
		h-2.2v-10.5h1.7l0.3,1.4h0.1c0.3-0.5,0.7-0.9,1.3-1.2c0.6-0.3,1.2-0.4,1.9-0.4c2.4,0,3.7,1.3,3.7,3.9V411.9z"/>
	<path class="st13" d="M214.5,406.6c0,1.7-0.4,3.1-1.3,4c-0.9,1-2,1.4-3.6,1.4c-1,0-1.8-0.2-2.5-0.7c-0.7-0.4-1.3-1.1-1.7-1.9
		s-0.6-1.8-0.6-2.9c0-1.7,0.4-3,1.3-4c0.8-1,2-1.4,3.6-1.4c1.5,0,2.6,0.5,3.5,1.5S214.5,404.9,214.5,406.6z M207.1,406.6
		c0,2.4,0.9,3.6,2.6,3.6c1.7,0,2.6-1.2,2.6-3.6s-0.9-3.6-2.6-3.6c-0.9,0-1.6,0.3-2,0.9C207.3,404.6,207.1,405.4,207.1,406.6z"/>
	<path class="st13" d="M219.3,411.9l-3.9-10.5h2.3l2.1,6.1c0.4,1,0.6,1.9,0.6,2.5h0.1c0.1-0.5,0.3-1.3,0.6-2.5l2.1-6.1h2.3
		l-3.9,10.5H219.3z"/>
	<path class="st13" d="M233.5,411.9l-0.4-1.5H233c-0.5,0.6-1,1.1-1.5,1.3c-0.5,0.2-1.1,0.3-1.9,0.3c-1,0-1.8-0.3-2.3-0.8
		s-0.8-1.3-0.8-2.4c0-1.1,0.4-1.9,1.2-2.5s2-0.9,3.6-0.9l1.8-0.1v-0.6c0-0.7-0.2-1.2-0.5-1.5c-0.3-0.3-0.8-0.5-1.4-0.5
		c-0.5,0-1,0.1-1.5,0.2c-0.5,0.2-0.9,0.3-1.4,0.6l-0.7-1.6c0.6-0.3,1.2-0.5,1.8-0.7c0.7-0.2,1.3-0.2,1.9-0.2c1.3,0,2.3,0.3,2.9,0.9
		c0.7,0.6,1,1.5,1,2.8v7.1L233.5,411.9L233.5,411.9z M230.3,410.4c0.8,0,1.4-0.2,1.9-0.7s0.7-1.1,0.7-1.9v-0.9l-1.3,0.1
		c-1,0-1.8,0.2-2.2,0.5c-0.5,0.3-0.7,0.8-0.7,1.4c0,0.5,0.1,0.8,0.4,1.1C229.3,410.2,229.7,410.4,230.3,410.4z"/>
	<path class="st13" d="M241.9,410.3c0.5,0,1.1-0.1,1.6-0.3v1.7c-0.2,0.1-0.5,0.2-0.9,0.3s-0.8,0.1-1.2,0.1c-2.1,0-3.1-1.1-3.1-3.4
		V403h-1.4v-1l1.5-0.8l0.7-2.2h1.3v2.3h2.9v1.7h-2.9v5.6c0,0.5,0.1,0.9,0.4,1.2C241.1,410.1,241.5,410.3,241.9,410.3z"/>
	<path class="st13" d="M245.4,398.6c0-0.4,0.1-0.7,0.3-0.9c0.2-0.2,0.5-0.3,0.9-0.3s0.7,0.1,0.9,0.3c0.2,0.2,0.3,0.5,0.3,0.9
		s-0.1,0.7-0.3,0.9c-0.2,0.2-0.5,0.3-0.9,0.3s-0.7-0.1-0.9-0.3C245.5,399.3,245.4,399,245.4,398.6z M247.7,411.9h-2.2v-10.5h2.2
		V411.9z"/>
	<path class="st13" d="M259.8,406.6c0,1.7-0.4,3.1-1.3,4c-0.9,1-2,1.4-3.6,1.4c-1,0-1.8-0.2-2.5-0.7c-0.7-0.4-1.3-1.1-1.7-1.9
		c-0.4-0.8-0.6-1.8-0.6-2.9c0-1.7,0.4-3,1.3-4s2-1.4,3.6-1.4c1.5,0,2.6,0.5,3.5,1.5S259.8,404.9,259.8,406.6z M252.4,406.6
		c0,2.4,0.9,3.6,2.6,3.6c1.7,0,2.6-1.2,2.6-3.6s-0.9-3.6-2.6-3.6c-0.9,0-1.6,0.3-2,0.9C252.6,404.6,252.4,405.4,252.4,406.6z"/>
	<path class="st13" d="M271.3,411.9h-2.2v-6.5c0-0.8-0.2-1.4-0.5-1.8s-0.8-0.6-1.5-0.6c-0.9,0-1.6,0.3-2,0.8
		c-0.4,0.6-0.6,1.5-0.6,2.8v5.2h-2.2v-10.5h1.7l0.3,1.4h0.1c0.3-0.5,0.7-0.9,1.3-1.2c0.6-0.3,1.2-0.4,1.9-0.4c2.4,0,3.7,1.3,3.7,3.9
		V411.9L271.3,411.9z"/>
	<path class="st13" d="M287.6,411.9l-1.3-4.9c-0.2-0.5-0.4-1.7-0.9-3.6h-0.1c-0.4,1.7-0.6,2.9-0.8,3.6l-1.4,4.9h-2.4l-2.9-10.5h2.2
		l1.3,5.2c0.3,1.3,0.5,2.4,0.6,3.3h0.1c0.1-0.5,0.2-1,0.3-1.6s0.2-1,0.3-1.3l1.6-5.5h2.4l1.5,5.5c0.1,0.3,0.2,0.8,0.3,1.4
		s0.2,1.1,0.2,1.5h0.1c0.1-0.8,0.3-1.9,0.6-3.3l1.3-5.2h2.2l-2.9,10.5H287.6L287.6,411.9z"/>
	<path class="st13" d="M294.6,398.6c0-0.4,0.1-0.7,0.3-0.9c0.2-0.2,0.5-0.3,0.9-0.3c0.4,0,0.7,0.1,0.9,0.3c0.2,0.2,0.3,0.5,0.3,0.9
		s-0.1,0.7-0.3,0.9c-0.2,0.2-0.5,0.3-0.9,0.3c-0.4,0-0.7-0.1-0.9-0.3C294.7,399.3,294.6,399,294.6,398.6z M296.9,411.9h-2.2v-10.5
		h2.2V411.9z"/>
	<path class="st13" d="M303.8,410.3c0.5,0,1.1-0.1,1.6-0.3v1.7c-0.2,0.1-0.5,0.2-0.9,0.3c-0.4,0.1-0.8,0.1-1.2,0.1
		c-2.1,0-3.1-1.1-3.1-3.4V403h-1.4v-1l1.5-0.8l0.7-2.2h1.3v2.3h2.9v1.7h-2.9v5.6c0,0.5,0.1,0.9,0.4,1.2
		C303,410.1,303.3,410.3,303.8,410.3z"/>
	<path class="st13" d="M316.4,411.9h-2.2v-6.5c0-0.8-0.2-1.4-0.5-1.8s-0.8-0.6-1.5-0.6c-0.9,0-1.6,0.3-2,0.8
		c-0.4,0.5-0.6,1.5-0.6,2.8v5.2h-2.2V397h2.2v3.8c0,0.6,0,1.2-0.1,1.9h0.1c0.3-0.5,0.7-0.9,1.2-1.2c0.5-0.3,1.1-0.4,1.8-0.4
		c2.5,0,3.7,1.3,3.7,3.9v6.9H316.4L316.4,411.9z"/>
	<path class="st13" d="M328.8,412.1c-1.6,0-2.8-0.5-3.7-1.4s-1.3-2.3-1.3-3.9c0-1.7,0.4-3.1,1.2-4.1c0.8-1,2-1.5,3.4-1.5
		c1.3,0,2.4,0.4,3.2,1.3c0.8,0.8,1.2,2,1.2,3.5v1.2H326c0,1,0.3,1.8,0.8,2.4c0.5,0.6,1.2,0.8,2.1,0.8c0.6,0,1.2-0.1,1.7-0.2
		c0.5-0.1,1.1-0.3,1.7-0.6v1.8c-0.5,0.3-1.1,0.4-1.6,0.6C330.1,412,329.5,412.1,328.8,412.1z M328.4,402.9c-0.7,0-1.2,0.2-1.7,0.7
		c-0.4,0.5-0.7,1.1-0.7,2h4.6c0-0.9-0.2-1.5-0.6-2C329.6,403.1,329.1,402.9,328.4,402.9z"/>
	<path class="st13" d="M337.5,406.5l-3.4-5.1h2.5l2.3,3.7l2.3-3.7h2.5l-3.4,5.1l3.6,5.4h-2.5l-2.5-3.9l-2.5,3.9h-2.5L337.5,406.5z"
		/>
	<path class="st13" d="M349.7,412.1c-1.5,0-2.7-0.5-3.5-1.4s-1.2-2.3-1.2-4c0-1.8,0.4-3.1,1.3-4.1c0.9-1,2.1-1.4,3.6-1.4
		c1.1,0,2,0.2,2.9,0.6l-0.7,1.8c-0.9-0.4-1.7-0.6-2.3-0.6c-1.8,0-2.7,1.2-2.7,3.6c0,1.2,0.2,2.1,0.7,2.7c0.4,0.6,1.1,0.9,1.9,0.9
		c1,0,1.9-0.2,2.7-0.7v2c-0.4,0.2-0.8,0.4-1.2,0.5C350.9,412,350.4,412.1,349.7,412.1z"/>
	<path class="st13" d="M359.4,412.1c-1.6,0-2.8-0.5-3.7-1.4s-1.3-2.3-1.3-3.9c0-1.7,0.4-3.1,1.2-4.1c0.8-1,2-1.5,3.4-1.5
		c1.3,0,2.4,0.4,3.2,1.3c0.8,0.8,1.2,2,1.2,3.5v1.2h-6.8c0,1,0.3,1.8,0.8,2.4c0.5,0.6,1.2,0.8,2.1,0.8c0.6,0,1.2-0.1,1.7-0.2
		c0.5-0.1,1.1-0.3,1.7-0.6v1.8c-0.5,0.3-1.1,0.4-1.6,0.6C360.8,412,360.1,412.1,359.4,412.1z M359,402.9c-0.7,0-1.2,0.2-1.7,0.7
		c-0.4,0.5-0.7,1.1-0.7,2h4.6c0-0.9-0.2-1.5-0.6-2C360.3,403.1,359.7,402.9,359,402.9z"/>
	<path class="st13" d="M368,411.9h-2.2v-14.8h2.2V411.9z"/>
	<path class="st13" d="M373.3,411.9h-2.1v-14.8h2.2v14.8H373.3z"/>
	<path class="st13" d="M380.9,412.1c-1.6,0-2.8-0.5-3.7-1.4s-1.3-2.3-1.3-3.9c0-1.7,0.4-3.1,1.2-4.1c0.8-1,2-1.5,3.4-1.5
		c1.3,0,2.4,0.4,3.2,1.3c0.8,0.8,1.2,2,1.2,3.5v1.2h-6.8c0,1,0.3,1.8,0.8,2.4c0.5,0.6,1.2,0.8,2.1,0.8c0.6,0,1.2-0.1,1.7-0.2
		c0.5-0.1,1.1-0.3,1.7-0.6v1.8c-0.5,0.3-1.1,0.4-1.6,0.6C382.2,412,381.6,412.1,380.9,412.1z M380.5,402.9c-0.7,0-1.2,0.2-1.7,0.7
		c-0.4,0.5-0.7,1.1-0.7,2h4.6c0-0.9-0.2-1.5-0.6-2S381.2,402.9,380.5,402.9z"/>
	<path class="st13" d="M396.3,411.9h-2.2v-6.5c0-0.8-0.2-1.4-0.5-1.8s-0.8-0.6-1.5-0.6c-0.9,0-1.6,0.3-2,0.8
		c-0.4,0.6-0.6,1.5-0.6,2.8v5.2h-2.2v-10.5h1.7l0.3,1.4h0.1c0.3-0.5,0.7-0.9,1.3-1.2c0.6-0.3,1.2-0.4,1.9-0.4c2.4,0,3.7,1.3,3.7,3.9
		V411.9L396.3,411.9z"/>
	<path class="st13" d="M403.4,412.1c-1.5,0-2.7-0.5-3.5-1.4s-1.2-2.3-1.2-4c0-1.8,0.4-3.1,1.3-4.1c0.9-1,2.1-1.4,3.6-1.4
		c1.1,0,2,0.2,2.9,0.6l-0.7,1.8c-0.9-0.4-1.7-0.6-2.3-0.6c-1.8,0-2.7,1.2-2.7,3.6c0,1.2,0.2,2.1,0.7,2.7c0.4,0.6,1.1,0.9,1.9,0.9
		c1,0,1.9-0.2,2.7-0.7v2c-0.4,0.2-0.8,0.4-1.2,0.5C404.6,412,404.1,412.1,403.4,412.1z"/>
	<path class="st13" d="M413.1,412.1c-1.6,0-2.8-0.5-3.7-1.4s-1.3-2.3-1.3-3.9c0-1.7,0.4-3.1,1.2-4.1c0.8-1,2-1.5,3.4-1.5
		c1.3,0,2.4,0.4,3.2,1.3c0.8,0.8,1.2,2,1.2,3.5v1.2h-6.8c0,1,0.3,1.8,0.8,2.4c0.5,0.6,1.2,0.8,2.1,0.8c0.6,0,1.2-0.1,1.7-0.2
		c0.5-0.1,1.1-0.3,1.7-0.6v1.8c-0.5,0.3-1.1,0.4-1.6,0.6C414.5,412,413.8,412.1,413.1,412.1z M412.7,402.9c-0.7,0-1.2,0.2-1.7,0.7
		c-0.4,0.5-0.7,1.1-0.7,2h4.6c0-0.9-0.2-1.5-0.6-2C414,403.1,413.4,402.9,412.7,402.9z"/>
</g>
<rect x="176.6" y="339.1" class="st5" width="241.6" height="47"/>
<g>
	<path class="st3" d="M192.7,376.1h-4.3v-24.6h4.3V376.1z"/>
	<path class="st3" d="M225.7,374.2c0,0.3-0.1,0.6-0.2,0.9s-0.3,0.5-0.5,0.7c-0.2,0.2-0.4,0.4-0.7,0.5s-0.5,0.2-0.8,0.2
		s-0.5-0.1-0.8-0.2c-0.3-0.1-0.5-0.3-0.7-0.5l-15.8-17v17.3h-4.3v-22.7c0-0.5,0.1-0.9,0.4-1.2c0.2-0.4,0.6-0.6,1-0.8
		c0.4-0.2,0.8-0.2,1.3-0.1s0.8,0.3,1.1,0.6l15.8,17v-17.3h4.3v22.6H225.7z"/>
	<path class="st3" d="M256.4,356h-17.3v20.1h-4.3v-22.3c0-0.3,0.1-0.6,0.2-0.9c0.1-0.3,0.3-0.5,0.5-0.7c0.2-0.2,0.4-0.4,0.7-0.5
		c0.3-0.1,0.6-0.2,0.9-0.2h19.5v4.5C256.6,356,256.4,356,256.4,356z M254.5,366.1h-13.7v-4.5h13.7V366.1z"/>
	<path class="st3" d="M288.9,366.2c0,1.5-0.2,2.9-0.7,4.1c-0.5,1.3-1.2,2.3-2.1,3.3c-0.9,1-1.9,1.6-3.1,2.1s-2.5,0.8-4,0.8h-5.8
		c-1.4,0-2.8-0.3-4-0.8s-2.3-1.2-3.2-2.1c-0.9-0.9-1.6-2-2.1-3.3c-0.5-1.3-0.8-2.6-0.8-4.1v-4.7c0-1.5,0.3-2.9,0.8-4.1
		c0.5-1.3,1.2-2.3,2.1-3.3c0.9-1,1.9-1.6,3.2-2.1c1.2-0.5,2.5-0.8,4-0.8h5.8c1.4,0,2.8,0.3,4,0.8s2.3,1.2,3.1,2.1
		c0.8,0.9,1.6,2,2.1,3.3s0.7,2.6,0.7,4.1V366.2z M284.5,361.5c0-0.9-0.1-1.7-0.4-2.4c-0.3-0.7-0.7-1.3-1.1-1.8
		c-0.5-0.5-1.1-0.9-1.8-1.2c-0.7-0.3-1.5-0.4-2.3-0.4h-5.8c-0.8,0-1.6,0.1-2.3,0.4c-0.7,0.3-1.3,0.7-1.8,1.2s-0.9,1.1-1.2,1.8
		c-0.3,0.7-0.4,1.5-0.4,2.4v4.7c0,0.9,0.1,1.7,0.4,2.4c0.3,0.7,0.7,1.3,1.2,1.8s1.1,0.9,1.8,1.2c0.7,0.3,1.5,0.4,2.3,0.4h5.8
		c0.8,0,1.6-0.1,2.3-0.4s1.3-0.7,1.8-1.2s0.9-1.1,1.2-1.8c0.3-0.7,0.4-1.5,0.4-2.4L284.5,361.5L284.5,361.5z"/>
	<path class="st3" d="M318.4,356h-9.5v20.1h-4.3V356h-9.5v-4.5h23.4L318.4,356C318.5,356,318.4,356,318.4,356z"/>
	<path class="st3" d="M347.2,376.1h-15.6c-0.6,0-1.3-0.1-2-0.3c-0.7-0.2-1.4-0.6-2-1.1c-0.6-0.5-1.1-1.1-1.5-1.9
		c-0.4-0.8-0.6-1.8-0.6-2.9v-16.1c0-0.3,0.1-0.6,0.2-0.9c0.1-0.3,0.3-0.5,0.5-0.7c0.2-0.2,0.4-0.4,0.7-0.5c0.3-0.1,0.6-0.2,0.9-0.2
		h19.4v4.5h-17.3v13.9c0,0.6,0.2,1,0.4,1.3c0.3,0.3,0.7,0.5,1.3,0.5h15.6V376.1z M345.3,366.1h-13.6v-4.5h13.6V366.1z"/>
	<path class="st3" d="M376.7,376.1h-15.6c-0.4,0-0.8,0-1.3-0.1s-0.9-0.2-1.4-0.5c-0.4-0.2-0.9-0.5-1.3-0.8c-0.4-0.3-0.8-0.7-1.1-1.2
		c-0.3-0.5-0.6-1-0.8-1.6s-0.3-1.3-0.3-2.1v-12.1c0-0.4,0-0.9,0.1-1.3c0.1-0.5,0.2-0.9,0.4-1.4c0.2-0.5,0.5-0.9,0.8-1.3
		s0.7-0.8,1.2-1.1c0.4-0.3,1-0.6,1.6-0.8c0.6-0.2,1.3-0.3,2-0.3h15.6v4.5H361c-0.6,0-1,0.2-1.3,0.5s-0.4,0.8-0.4,1.4v12
		c0,0.6,0.2,1,0.5,1.3c0.3,0.3,0.7,0.5,1.3,0.5h15.6L376.7,376.1L376.7,376.1z"/>
	<path class="st3" d="M389.2,361.6h15.2v-10h4.3v24.6h-4.3v-10h-15.2v10h-4.3v-24.6h4.3V361.6z"/>
</g>
<g>
	<path class="st3" d="M224.6,312.7c0,1.7-0.2,3.3-0.6,4.7c-0.4,1.4-1,2.6-1.7,3.7c-0.7,1.1-1.5,2-2.5,2.7c-0.9,0.7-1.9,1.4-2.9,1.8
		c-1,0.5-2,0.8-3.1,1.1c-1,0.2-2,0.3-3,0.3h-33.1v-8.7h33.1c1.7,0,2.9-0.5,3.8-1.5c0.9-1,1.4-2.3,1.4-4c0-0.8-0.1-1.6-0.4-2.2
		c-0.2-0.7-0.6-1.3-1-1.8c-0.5-0.5-1-0.9-1.7-1.2c-0.7-0.3-1.4-0.4-2.2-0.4h-19.8c-1.4,0-2.9-0.3-4.5-0.8s-3.1-1.3-4.5-2.5
		c-1.4-1.1-2.5-2.6-3.4-4.5s-1.4-4.1-1.4-6.7s0.5-4.9,1.4-6.7c0.9-1.8,2.1-3.3,3.4-4.5c1.4-1.1,2.9-2,4.5-2.5s3.1-0.8,4.5-0.8h29.2
		v8.9h-29.2c-1.6,0-2.9,0.5-3.8,1.5c-0.9,1-1.4,2.4-1.4,4.1c0,1.7,0.5,3,1.4,4s2.2,1.5,3.8,1.5h19.8h0.1c0.9,0,1.9,0.2,2.9,0.4
		c1,0.2,2.1,0.6,3.1,1.1s2,1.1,2.9,1.9c0.9,0.8,1.7,1.7,2.5,2.7s1.3,2.3,1.7,3.7C224.4,309.4,224.6,311,224.6,312.7z"/>
	<path class="st3" d="M273.4,287.1h-18.9v40h-8.6v-40h-19v-8.8h46.5V287.1z"/>
</g>
<g>
	
		<radialGradient id="SVGID_10_" cx="128.6699" cy="728.2585" r="29.6377" gradientTransform="matrix(0.9211 -0.3892 0.3892 0.9211 -99.7113 -317.919)" gradientUnits="userSpaceOnUse">
		<stop  offset="5.586592e-03" style="stop-color:#FBA91D"/>
		<stop  offset="1" style="stop-color:#F78F1E"/>
	</radialGradient>
	<path class="st14" d="M287.8,315.4c4-2.8,8.5-7.3,12.4-12.7c5.1-7.2,8.5-14.8,9.2-20.1l-2.2,0.6l-20.4-18.6l-1,27.7l-24,13.6
		l25.9,9.4L287.8,315.4z"/>
	
		<radialGradient id="SVGID_11_" cx="129.23" cy="739.2792" r="19.6383" gradientTransform="matrix(0.9211 -0.3892 0.3892 0.9211 -99.7113 -317.919)" gradientUnits="userSpaceOnUse">
		<stop  offset="5.586592e-03" style="stop-color:#FBA91D"/>
		<stop  offset="1" style="stop-color:#F78F1E"/>
	</radialGradient>
	<path class="st15" d="M315.8,308.7c-8.1,8-17.1,14.5-24.6,17.7l0,0c-0.4,0.2-0.7,0.3-1.1,0.4l3.2,15.5l16.9-21.7l27.4,3l-15.1-22.2
		C320.5,303.9,318.2,306.3,315.8,308.7z"/>
	
		<radialGradient id="SVGID_12_" cx="132.2498" cy="728.0455" r="27.5811" gradientTransform="matrix(0.9211 -0.3892 0.3892 0.9211 -99.7113 -317.919)" gradientUnits="userSpaceOnUse">
		<stop  offset="5.586592e-03" style="stop-color:#FBA91D"/>
		<stop  offset="1" style="stop-color:#F15C30"/>
	</radialGradient>
	<path class="st16" d="M311.8,282.2c-0.4,5.6-3.9,13.8-9.7,22c-8.8,12.3-19.5,19.8-23.9,16.6c-1.8-1.3-2.3-4.2-1.7-8
		c-2,5.2-2.1,9.4,0.2,11.7c5.4,5.4,22.1-2.4,37.4-17.5c11.6-11.4,19-23.7,19.6-31.3L311.8,282.2z"/>
</g>
<g>
	<path class="st3" d="M388.8,294.7c0,2-0.2,3.8-0.7,5.4s-1.1,3-2,4.2c-0.8,1.2-1.8,2.3-2.9,3.1c-1.1,0.9-2.2,1.6-3.4,2.1
		c-1.2,0.6-2.4,1-3.6,1.2c-1.2,0.3-2.3,0.4-3.4,0.4l17.9,16h-13.3l-17.9-16h-6.2v-8.8h19.4c1.1-0.1,2.1-0.3,3-0.7
		c0.9-0.4,1.7-0.9,2.3-1.5s1.2-1.4,1.5-2.3c0.4-0.9,0.5-1.9,0.5-3.1v-5.6c0-0.5-0.1-0.9-0.2-1.1c-0.1-0.3-0.3-0.5-0.5-0.6
		c-0.2-0.1-0.4-0.2-0.6-0.2s-0.4,0-0.6,0h-28.3v40h-8.6v-44.5c0-0.6,0.1-1.2,0.3-1.7s0.5-1,0.9-1.4c0.4-0.4,0.8-0.7,1.4-1
		c0.5-0.2,1.1-0.3,1.7-0.3h32.6c1.9,0,3.5,0.4,4.9,1.1c1.4,0.7,2.4,1.6,3.2,2.7c0.8,1.1,1.4,2.2,1.8,3.5c0.4,1.3,0.5,2.4,0.5,3.5
		v5.6C388.5,294.7,388.8,294.7,388.8,294.7z"/>
</g>
<g>
	<path class="st9" d="M208.3,265.8c0,0.3-0.1,0.7-0.2,0.9c-0.1,0.3-0.3,0.5-0.5,0.8c-0.2,0.2-0.4,0.4-0.7,0.5s-0.6,0.2-0.9,0.2
		c-0.3,0-0.6-0.1-0.9-0.2c-0.3-0.1-0.5-0.3-0.8-0.5l-16.7-17.9v18.3h-4.4v-24c0-0.5,0.1-0.9,0.4-1.3c0.3-0.4,0.6-0.7,1-0.9
		s0.9-0.2,1.3-0.1c0.5,0.1,0.8,0.3,1.2,0.7l16.7,17.9v-18.3h4.6L208.3,265.8L208.3,265.8z"/>
	<path class="st9" d="M236,267.8h-16.5c-0.6,0-1.3-0.1-2.1-0.3c-0.7-0.2-1.4-0.6-2.1-1.1s-1.2-1.2-1.6-2s-0.6-1.9-0.6-3.1v-17
		c0-0.3,0.1-0.6,0.2-0.9c0.1-0.3,0.3-0.5,0.5-0.8c0.2-0.2,0.4-0.4,0.7-0.5c0.3-0.1,0.6-0.2,0.9-0.2h20.5v4.7h-18.3v14.6
		c0,0.6,0.2,1.1,0.5,1.4c0.3,0.3,0.8,0.5,1.4,0.5h16.4v4.7H236z M233.9,257.2h-14.4v-4.7h14.4V257.2z"/>
	<path class="st9" d="M272.1,241.9l-4.2,24.3c-0.1,0.5-0.3,0.9-0.6,1.2c-0.3,0.4-0.7,0.6-1.2,0.7s-0.9,0-1.4-0.2
		c-0.4-0.2-0.8-0.5-1-0.9l-8.4-14.1l-8.4,14.1c-0.2,0.4-0.5,0.6-0.8,0.8c-0.3,0.2-0.7,0.3-1.1,0.3c-0.5,0-1-0.2-1.5-0.5
		c-0.4-0.4-0.7-0.8-0.8-1.4l-4.2-24.3h4.6l3,17.1l7.2-11.8c0.2-0.3,0.5-0.6,0.8-0.8s0.7-0.3,1.1-0.3s0.8,0.1,1.1,0.3
		c0.3,0.2,0.6,0.5,0.8,0.8l7.2,11.8l3-17.1C267.3,241.9,272.1,241.9,272.1,241.9z"/>
</g>
</svg>
